<svg width="25" height="38" viewBox="0 0 25 38" fill="none" xmlns="http://www.w3.org/2000/svg">
<g clip-path="url(#clip0)">
<path d="M22.3603 19.9369L2.73233 2.09326C2.50988 1.89103 2.15309 2.04886 2.15309 2.34949V28.316C2.15309 28.6123 2.5009 28.7718 2.72537 28.5784L8.72802 23.4087C8.90327 23.2577 9.1744 23.3177 9.2696 23.5285L14.8506 35.8845C14.9286 36.0572 15.1309 36.1351 15.3046 36.0594L19.2274 34.3493C19.4056 34.2716 19.485 34.0626 19.4032 33.8863L13.8431 21.888C13.7434 21.6729 13.8846 21.4234 14.1205 21.3981L22.1642 20.5374C22.4612 20.5056 22.5813 20.1378 22.3603 19.9369Z" fill="white"/>
<path fill-rule="evenodd" clip-rule="evenodd" d="M13.2726 36.5973C13.7406 37.6333 14.9544 38.1009 15.9965 37.6466L19.9194 35.9365C20.9883 35.4705 21.4645 34.2163 20.9742 33.1582L16.2269 22.9141L22.3484 22.259C24.1308 22.0683 24.8513 19.8614 23.525 18.6557L3.89703 0.81207C2.56234 -0.401289 0.421623 0.545695 0.421623 2.34949V28.316C0.421623 30.0935 2.50848 31.0503 3.85529 29.8904L8.45422 25.9296L13.2726 36.5973ZM2.72537 28.5784C2.5009 28.7718 2.15309 28.6123 2.15309 28.316V2.34949C2.15309 2.04886 2.50987 1.89102 2.73232 2.09325L22.3603 19.9368C22.5813 20.1378 22.4612 20.5056 22.1642 20.5374L14.1205 21.3981C13.8846 21.4234 13.7434 21.6728 13.8431 21.888L19.4032 33.8862C19.485 34.0626 19.4056 34.2716 19.2274 34.3493L15.3046 36.0594C15.1309 36.1351 14.9286 36.0572 14.8506 35.8845L9.2696 23.5285C9.17439 23.3177 8.90327 23.2577 8.72802 23.4087L2.72537 28.5784Z" fill="#121113"/>
</g>
<defs>
<clipPath id="clip0">
<rect width="23.7861" height="37.5526" fill="white" transform="translate(0.421623 0.267639)"/>
</clipPath>
</defs>
</svg>
