<svg width="45" height="70" viewBox="0 0 45 70" fill="none" xmlns="http://www.w3.org/2000/svg">
<path d="M40.8182 37.1117L4.72154 4.29648C4.31244 3.92457 3.6563 4.21483 3.6563 4.76771V52.5214C3.6563 53.0662 4.29593 53.3594 4.70874 53.0039L15.7479 43.4965C16.0702 43.2189 16.5688 43.3293 16.7439 43.7169L27.0076 66.4401C27.151 66.7577 27.523 66.901 27.8425 66.7618L35.0568 63.6168C35.3844 63.474 35.5304 63.0895 35.3801 62.7652L25.1548 40.7C24.9713 40.3042 25.2311 39.8454 25.6648 39.799L40.4576 38.2161C41.0039 38.1577 41.2248 37.4812 40.8182 37.1117Z" fill="white"/>
<path fill-rule="evenodd" clip-rule="evenodd" d="M24.1056 67.7509C24.9662 69.6563 27.1984 70.5162 29.1149 69.6807L36.3293 66.5357C38.2951 65.6787 39.1709 63.3721 38.2692 61.4264L29.5387 42.5869L40.7964 41.3823C44.0743 41.0315 45.3994 36.973 42.9602 34.7555L6.86348 1.94033C4.40892 -0.291095 0.472046 1.45045 0.472046 4.76771V52.5214C0.472046 55.7901 4.30986 57.5498 6.78671 55.4167L15.2444 48.1326L24.1056 67.7509ZM4.70873 53.0039C4.29593 53.3594 3.65629 53.0662 3.65629 52.5214V4.76771C3.65629 4.21483 4.31243 3.92457 4.72153 4.29648L40.8182 37.1117C41.2248 37.4812 41.0039 38.1577 40.4576 38.2161L25.6648 39.799C25.2311 39.8454 24.9713 40.3042 25.1547 40.7L35.3801 62.7652C35.5304 63.0895 35.3844 63.474 35.0568 63.6168L27.8425 66.7618C27.523 66.901 27.151 66.7577 27.0076 66.4401L16.7439 43.7169C16.5688 43.3293 16.0702 43.2189 15.7479 43.4965L4.70873 53.0039Z" fill="#121113"/>
</svg>
