<svg width="35" height="33" viewBox="0 0 35 33" fill="none" xmlns="http://www.w3.org/2000/svg">
<g clip-path="url(#clip0)">
<path d="M26.4836 26.6002L18.2158 29.0485C15.8857 29.7384 13.3279 29.0403 11.5367 27.2268L5.03835 19.8181C3.63564 18.2181 3.59296 15.8552 4.93705 14.1957L6.78196 11.9188L7.93986 15.7888C8.13679 16.4459 9.1729 16.1446 8.97561 15.4838L7.5227 10.6294L6.79027 8.18209C6.43032 6.9835 7.04678 5.73852 8.16516 5.40747C8.70789 5.24998 9.29212 5.32378 9.77515 5.61106C10.2974 5.91653 10.681 6.40684 10.8485 6.98229C11.3586 8.67663 11.8685 10.371 12.3785 12.0654C12.5766 12.7222 13.6123 12.4194 13.4137 11.7589L12.0534 7.23969C11.7475 6.06826 12.3605 4.87567 13.4515 4.55258C14.013 4.38691 14.6123 4.43574 15.1216 4.73819C15.6436 5.04369 16.0274 5.53397 16.1949 6.10967C16.5973 7.44721 17 8.7847 17.4026 10.1222C17.6012 10.7782 18.6359 10.4753 18.4376 9.81552L17.4875 6.65859C17.132 5.46175 17.7478 4.22158 18.8695 3.88954C19.4122 3.73205 19.9962 3.80589 20.4795 4.09314C21.0015 4.39839 21.3853 4.88866 21.5528 5.46437L22.4468 8.4345C22.6443 9.09137 23.681 8.78826 23.4818 8.12806L22.9987 6.52304L22.9977 6.51951C22.8194 5.94686 22.8695 5.32802 23.1373 4.78871C23.3827 4.2858 23.8302 3.90654 24.3713 3.74324C25.5524 3.3883 26.756 4.13204 27.1092 5.29506C28.5758 10.1268 28.7071 10.5864 30.8835 17.8454C32.0157 21.6193 30.0416 25.5465 26.4836 26.6002Z" fill="white"/>
<path fill-rule="evenodd" clip-rule="evenodd" d="M26.9467 28.1644L18.679 30.6126C15.7373 31.4837 12.564 30.5883 10.3761 28.3731L10.3422 28.3387L3.81198 20.8938C1.88288 18.6934 1.82804 15.4424 3.6694 13.1689L5.79491 10.5458L5.22793 8.65129C5.22787 8.65109 5.22781 8.65089 5.22775 8.65069C4.64047 6.69407 5.6142 4.46134 7.70213 3.84328L7.70634 3.84203L7.71055 3.84081C8.68211 3.55889 9.73096 3.68874 10.6038 4.20593C10.7388 4.28512 10.8683 4.37174 10.992 4.4652C11.4428 3.78388 12.1191 3.24584 12.9883 2.98844L12.9899 2.98799C13.9348 2.70916 15.0087 2.77573 15.9499 3.33288C16.1357 3.44191 16.3113 3.56505 16.4755 3.70074C16.926 3.06768 17.5789 2.57032 18.4065 2.32535L18.4107 2.32411L18.4149 2.32289C19.3868 2.04086 20.4353 2.17105 21.308 2.68792C21.617 2.86924 21.8979 3.0896 22.1446 3.34184C22.5997 2.79565 23.2091 2.39 23.9 2.18152L23.9018 2.18097C26.0461 1.53659 28.0878 2.90348 28.6701 4.82107C29.7709 8.44759 30.1206 9.61515 31.1447 13.0339C31.486 14.1733 31.9022 15.5627 32.446 17.3766C33.8107 21.9258 31.4581 26.8284 26.9467 28.1644ZM30.8835 17.8454C30.3392 16.03 29.9228 14.6398 29.5815 13.5002C28.5579 10.0831 28.209 8.9184 27.1092 5.29506C26.756 4.13204 25.5524 3.3883 24.3713 3.74324C23.8302 3.90654 23.3827 4.28579 23.1373 4.78871C23.1191 4.82534 23.1019 4.86233 23.0857 4.89965C23.0689 4.93849 23.0532 4.97768 23.0385 5.01718C23.0365 5.02271 23.0344 5.02824 23.0324 5.03377C22.8596 5.51076 22.8459 6.03189 22.9977 6.51951L22.9987 6.52304L23.4804 8.12339L23.4818 8.12805C23.6804 8.78649 22.6498 9.08975 22.4484 8.43975C22.4484 8.43956 22.4483 8.43936 22.4482 8.43917C22.4478 8.43762 22.4473 8.43606 22.4468 8.4345L21.5528 5.46437C21.5039 5.29616 21.4365 5.13524 21.3525 4.9841C21.1492 4.61796 20.8489 4.3092 20.4795 4.09314C19.9962 3.80589 19.4122 3.73205 18.8695 3.88954C18.2527 4.07212 17.7889 4.52927 17.5554 5.10281C17.4728 5.30561 17.4191 5.52296 17.3975 5.74788C17.3971 5.75193 17.3968 5.75598 17.3964 5.76003C17.3699 6.05213 17.3978 6.35674 17.4875 6.65859L18.4376 9.81552C18.6355 10.4739 17.6058 10.7769 17.4039 10.1266C17.4039 10.1265 17.404 10.1267 17.4039 10.1266C17.4035 10.1252 17.403 10.1236 17.4026 10.1222C17.3106 9.81653 17.2186 9.51084 17.1266 9.20515C17.102 9.12348 17.0774 9.04182 17.0528 8.96016C16.8531 8.29668 16.6534 7.6332 16.4537 6.96971C16.4533 6.96846 16.453 6.9672 16.4526 6.96595C16.3667 6.68052 16.2808 6.3951 16.1949 6.10967C16.1139 5.83104 15.9821 5.57242 15.8086 5.34507C15.6235 5.10268 15.3909 4.89583 15.1216 4.73819C14.6123 4.43574 14.013 4.38691 13.4515 4.55258C12.823 4.73872 12.3531 5.21345 12.1261 5.80647C12.0263 6.06731 11.9735 6.35104 11.9749 6.64317C11.9749 6.6469 11.9749 6.65065 11.975 6.65439C11.9768 6.8473 12.0022 7.04379 12.0534 7.23969L13.4137 11.7589C13.6118 12.4178 12.5815 12.7207 12.3799 12.0701C12.3799 12.07 12.3799 12.0703 12.3799 12.0701C12.3795 12.0687 12.3789 12.0669 12.3785 12.0654C12.2865 11.7599 12.1946 11.4544 12.1026 11.149C12.0324 10.9157 11.9622 10.6825 11.892 10.4492C11.6013 9.48311 11.3105 8.51697 11.0197 7.55086C11.0158 7.53812 11.012 7.52539 11.0081 7.51265C10.9549 7.33586 10.9017 7.15908 10.8485 6.98229C10.7551 6.66143 10.5945 6.36704 10.3802 6.11641C10.2101 5.91754 10.0062 5.74621 9.77515 5.61106C9.29212 5.32378 8.70789 5.24998 8.16516 5.40747C7.04678 5.73852 6.43032 6.9835 6.79027 8.18208L8.97561 15.4838C9.17244 16.1431 8.14164 16.4445 7.94126 15.7934C7.94119 15.7932 7.94112 15.7929 7.94105 15.7927C7.94065 15.7914 7.94025 15.7901 7.93986 15.7888L6.78196 11.9188L4.93705 14.1957C3.59296 15.8552 3.63563 18.2181 5.03834 19.8181L11.5367 27.2268C13.3279 29.0403 15.8857 29.7384 18.2158 29.0485L26.4836 26.6002C30.0416 25.5465 32.0157 21.6193 30.8835 17.8454Z" fill="black"/>
</g>
<defs>
<clipPath id="clip0">
<rect width="33.5294" height="32.1062" fill="white" transform="translate(0.572376 0.563309)"/>
</clipPath>
</defs>
</svg>
