<svg width="63" height="60" viewBox="0 0 63 60" fill="none" xmlns="http://www.w3.org/2000/svg">
<path d="M48.27 48.5017L33.0652 53.0042C28.7801 54.273 24.0762 52.9891 20.7821 49.6539L8.83127 36.0291C6.25163 33.0866 6.17315 28.741 8.64498 25.6892L12.0379 21.502L14.1673 28.619C14.5295 29.8275 16.4349 29.2734 16.0721 28.0581L13.4001 19.1307L12.0531 14.6299C11.3912 12.4257 12.5249 10.1361 14.5816 9.52726C15.5797 9.23763 16.6542 9.37335 17.5425 9.90168C18.5029 10.4635 19.2083 11.3652 19.5164 12.4234C20.4545 15.5394 21.3922 18.6555 22.3301 21.7715C22.6944 22.9794 24.5992 22.4224 24.234 21.2079L21.7323 12.8968C21.1697 10.7425 22.2971 8.54926 24.3035 7.95509C25.3361 7.65041 26.4382 7.74022 27.3748 8.29643C28.3348 8.85827 29.0407 9.7599 29.3488 10.8187C30.0888 13.2784 30.8294 15.7381 31.5697 18.1979C31.9349 19.4043 33.8379 18.8473 33.4731 17.6339L31.7258 11.8281C31.0721 9.62709 32.2045 7.34637 34.2674 6.73573C35.2655 6.4461 36.3395 6.58189 37.2282 7.11015C38.1882 7.67152 38.894 8.57315 39.2021 9.6319L40.8462 15.0941C41.2094 16.3021 43.1159 15.7447 42.7497 14.5305L41.8612 11.5789L41.8593 11.5724C41.5314 10.5192 41.6235 9.38115 42.116 8.38935C42.5674 7.46446 43.3903 6.76699 44.3854 6.46667C46.5576 5.81392 48.7711 7.1817 49.4206 9.32054C52.1178 18.2063 52.3591 19.0516 56.3617 32.4011C58.4438 39.3415 54.8135 46.5639 48.27 48.5017Z" fill="white"/>
<path fill-rule="evenodd" clip-rule="evenodd" d="M49.1218 51.3782L33.917 55.8807C28.5071 57.4826 22.6713 55.836 18.6477 51.762L18.5853 51.6989L6.57593 38.0073C3.02824 33.9606 2.92738 27.982 6.31372 23.801L10.2226 18.9769L9.17992 15.4928C9.17981 15.4924 9.1797 15.4921 9.17959 15.4917C8.09956 11.8934 9.8903 7.78729 13.7301 6.65065L13.7378 6.64836L13.7456 6.64611C15.5323 6.12764 17.4612 6.36645 19.0664 7.31757C19.3146 7.46321 19.5529 7.62252 19.7803 7.79439C20.6094 6.54141 21.8532 5.55193 23.4517 5.07857L23.4545 5.07774C25.1923 4.56495 27.1672 4.68739 28.8982 5.712C29.2398 5.91252 29.5628 6.13897 29.8646 6.38851C30.6932 5.22429 31.894 4.30962 33.4159 3.85912L33.4236 3.85683L33.4313 3.85458C35.2187 3.33593 37.1469 3.57534 38.7519 4.52589C39.3202 4.85935 39.8368 5.2646 40.2905 5.72848C41.1274 4.72402 42.2482 3.97801 43.5187 3.5946L43.5221 3.59359C47.4656 2.40855 51.2203 4.92232 52.2911 8.44886C54.3156 15.1182 54.9587 17.2654 56.842 23.5526C57.4696 25.648 58.235 28.2033 59.2352 31.5391C61.745 39.9052 57.4184 48.9212 49.1218 51.3782ZM56.3617 32.4011C55.3607 29.0625 54.5949 26.506 53.9672 24.4102C52.0848 18.1259 51.4432 15.984 49.4206 9.32054C48.7711 7.1817 46.5576 5.81392 44.3854 6.46667C43.3903 6.76699 42.5674 7.46446 42.116 8.38935C42.0826 8.4567 42.051 8.52473 42.0212 8.59336C41.9903 8.66479 41.9613 8.73686 41.9344 8.80951C41.9306 8.81967 41.9269 8.82984 41.9232 8.84002C41.6054 9.71722 41.5801 10.6756 41.8593 11.5724L41.8612 11.5789L42.7471 14.522L42.7497 14.5305C43.1149 15.7414 41.2196 16.2991 40.8492 15.1038C40.8491 15.1034 40.849 15.1031 40.8489 15.1027C40.848 15.0998 40.8471 15.097 40.8462 15.0941L39.2021 9.6319C39.1121 9.32256 38.9881 9.02662 38.8338 8.74867C38.4598 8.07532 37.9077 7.5075 37.2282 7.11015C36.3395 6.58189 35.2655 6.4461 34.2674 6.73573C33.1331 7.0715 32.2801 7.91222 31.8507 8.96698C31.6989 9.33994 31.6 9.73967 31.5604 10.1533C31.5596 10.1607 31.5589 10.1682 31.5583 10.1756C31.5096 10.7128 31.5609 11.273 31.7258 11.8281L33.4731 17.6339C33.8371 18.8446 31.9434 19.4018 31.5722 18.206C31.5721 18.2058 31.5722 18.2061 31.5722 18.206C31.5714 18.2035 31.5705 18.2004 31.5697 18.1979C31.4005 17.6357 31.2313 17.0735 31.062 16.5114C31.0168 16.3612 30.9716 16.211 30.9264 16.0608C30.5591 14.8406 30.1919 13.6205 29.8247 12.4003C29.824 12.398 29.8233 12.3957 29.8226 12.3934C29.6646 11.8685 29.5067 11.3436 29.3488 10.8187C29.1996 10.3062 28.9573 9.83062 28.6382 9.41252C28.2979 8.96674 27.8702 8.58635 27.3748 8.29643C26.4382 7.74022 25.3361 7.65041 24.3035 7.95509C23.1476 8.2974 22.2834 9.17046 21.866 10.261C21.6825 10.7408 21.5853 11.2625 21.5879 11.7998C21.5879 11.8066 21.5879 11.8135 21.588 11.8204C21.5914 12.1752 21.6382 12.5365 21.7323 12.8968L24.234 21.2079C24.5983 22.4195 22.7035 22.9767 22.3327 21.7802C22.3327 21.78 22.3328 21.7804 22.3327 21.7802C22.3319 21.7775 22.3309 21.7742 22.3301 21.7715C22.161 21.2097 21.9919 20.6479 21.8228 20.0861C21.6937 19.6572 21.5646 19.2283 21.4355 18.7993C20.9008 17.0226 20.366 15.2458 19.8312 13.4691C19.8241 13.4456 19.8171 13.4222 19.81 13.3988C19.7121 13.0737 19.6143 12.7486 19.5164 12.4234C19.3446 11.8334 19.0493 11.292 18.6552 10.831C18.3424 10.4653 17.9674 10.1502 17.5425 9.90168C16.6542 9.37335 15.5797 9.23763 14.5816 9.52726C12.5249 10.1361 11.3912 12.4257 12.0531 14.6299L16.0721 28.0581C16.4341 29.2705 14.5384 29.8249 14.1699 28.6275C14.1697 28.627 14.1696 28.6266 14.1695 28.6262C14.1687 28.6238 14.168 28.6214 14.1673 28.619L12.0379 21.502L8.64498 25.6892C6.17315 28.741 6.25163 33.0866 8.83127 36.0291L20.7821 49.6539C24.0762 52.9891 28.7801 54.273 33.0652 53.0042L48.27 48.5017C54.8135 46.5639 58.4438 39.3415 56.3617 32.4011Z" fill="black"/>
</svg>
