<svg width="35" height="38" viewBox="0 0 35 38" fill="none" xmlns="http://www.w3.org/2000/svg">
<path d="M31.1742 18.4647C31.931 18.8767 31.931 19.9631 31.1742 20.3751L5.98894 34.0849C5.26427 34.4794 4.38147 33.9548 4.38147 33.1297L4.38147 5.71005C4.38147 4.88497 5.26427 4.3604 5.98894 4.75489L31.1742 18.4647Z" fill="white"/>
<path fill-rule="evenodd" clip-rule="evenodd" d="M31.9542 21.8078L6.76888 35.5176C4.9572 36.5038 2.75019 35.1924 2.75019 33.1297L2.75019 5.71006C2.75019 3.64734 4.9572 2.33593 6.76888 3.32214L31.9542 17.032C33.846 18.0618 33.8461 20.7779 31.9542 21.8078ZM31.1742 20.3751C31.931 19.9631 31.931 18.8767 31.1742 18.4647L5.98895 4.75489C5.26428 4.36041 4.38147 4.88497 4.38147 5.71006L4.38147 33.1297C4.38147 33.9548 5.26427 34.4794 5.98895 34.0849L31.1742 20.3751Z" fill="black"/>
</svg>
