<svg id="emjz1fjlptko1" xmlns="http://www.w3.org/2000/svg" xmlns:xlink="http://www.w3.org/1999/xlink" viewBox="0 0 40 38" shape-rendering="geometricPrecision" text-rendering="geometricPrecision"><path id="emjz1fjlptko2" d="M22.360300,19.936900L2.732330,2.093260C2.509880,1.891030,2.153090,2.048860,2.153090,2.349490L2.153090,28.316000C2.153090,28.612300,2.500900,28.771800,2.725370,28.578400L8.728020,23.408700C8.903270,23.257700,9.174400,23.317700,9.269600,23.528500L14.850600,35.884500C14.928600,36.057200,15.130900,36.135100,15.304600,36.059400L19.227400,34.349300C19.405600,34.271600,19.485000,34.062600,19.403200,33.886300L13.843100,21.888000C13.743400,21.672900,13.884600,21.423400,14.120500,21.398100L22.164200,20.537400C22.461200,20.505600,22.581300,20.137800,22.360300,19.936900Z" transform="matrix(1 0 0 1 0.00112276500000 0)" fill="rgb(255,255,255)" stroke="rgb(0,0,0)" stroke-width="1"/></svg>