<svg width="62" height="69" viewBox="0 0 62 69" fill="none" xmlns="http://www.w3.org/2000/svg">
<path d="M55.7731 32.2434C57.1648 33.001 57.1648 34.999 55.7731 35.7566L9.45622 60.9696C8.12351 61.6951 6.5 60.7304 6.5 59.213L6.5 8.787C6.5 7.26963 8.12351 6.30493 9.45622 7.03041L55.7731 32.2434Z" fill="white"/>
<path fill-rule="evenodd" clip-rule="evenodd" d="M57.2074 38.3915L10.8905 63.6045C7.55878 65.4182 3.5 63.0064 3.5 59.213L3.5 8.787C3.5 4.99356 7.55879 2.58183 10.8906 4.3955L57.2074 29.6085C60.6867 31.5025 60.6867 36.4975 57.2074 38.3915ZM55.7731 35.7566C57.1648 34.999 57.1648 33.001 55.7731 32.2434L9.45622 7.0304C8.12351 6.30493 6.5 7.26962 6.5 8.787L6.5 59.213C6.5 60.7304 8.12351 61.6951 9.45622 60.9696L55.7731 35.7566Z" fill="black"/>
</svg>
