<svg width="35" height="38" viewBox="0 0 35 38" fill="none" xmlns="http://www.w3.org/2000/svg">
<g clip-path="url(#clip0)">
<path d="M4.68959 2.0655C3.52307 2.47343 2.90635 3.75481 3.31211 4.92756L9.71139 23.4231C9.81125 23.7117 9.51439 23.9778 9.24061 23.845L5.43216 21.9982C4.48727 21.54 3.3528 21.7994 2.69791 22.6233C1.87071 23.664 2.11321 25.1945 3.22111 25.9254C11.5159 30.1588 15.7179 37.7098 24.8017 35.1021C30.2455 33.1985 33.8824 27.1309 32.0565 21.8535C30.6687 17.8425 29.2808 13.8315 27.893 9.82052C27.5549 8.84322 26.4927 8.32655 25.5206 8.66649C24.5485 9.00642 24.0346 10.0742 24.3727 11.0515L25.7311 14.9777C25.8284 15.2589 25.5456 15.5277 25.2664 15.4285C24.9723 15.3238 24.6741 15.2303 24.373 15.1482C24.2624 15.1181 24.1729 15.0359 24.1353 14.9271L22.2301 9.4205C21.8243 8.24775 20.5497 7.62773 19.3832 8.03566C18.2167 8.44359 17.6 9.72498 18.0057 10.8977L19.2599 14.5225C19.3286 14.7213 19.2048 14.9345 19.0006 14.9807C18.644 15.0613 18.2915 15.1619 17.9446 15.2832L15.7403 8.91278C15.3345 7.74003 14.0599 7.12001 12.8934 7.52794C11.7269 7.93587 11.1102 9.21726 11.5159 10.39L14.0163 17.6167C14.0581 17.7377 14.0291 17.8717 13.9435 17.9666C13.7479 18.1833 13.5614 18.4082 13.3844 18.6404C13.213 18.8651 12.8532 18.8169 12.7606 18.5495L7.53647 3.45034C7.13071 2.27758 5.85612 1.65757 4.68959 2.0655Z" fill="white"/>
<path fill-rule="evenodd" clip-rule="evenodd" d="M2.37165 27.3834L2.29335 27.3318C0.35718 26.0546 -0.0619339 23.3878 1.37895 21.5749C2.52303 20.1355 4.51033 19.6787 6.1673 20.4822L7.06096 20.9156L1.71987 5.47847C1.01273 3.43464 2.08439 1.19164 4.13344 0.475096C6.18666 -0.242903 8.42016 0.851572 9.12871 2.89944L10.5999 7.15152C11.0411 6.61267 11.6311 6.18446 12.3372 5.93754C14.1629 5.29911 16.1311 6.09368 17.0431 7.71731C17.4889 7.15116 18.0958 6.70099 18.8271 6.44526C20.604 5.82385 22.5161 6.56005 23.4577 8.09695C23.8491 7.64592 24.3597 7.28758 24.9645 7.07608C26.8233 6.42607 28.8443 7.41721 29.4853 9.26962L33.6487 21.3026C35.8412 27.6394 31.4842 34.5502 25.3579 36.6925L25.3127 36.7083L25.2666 36.7216C20.0939 38.2065 16.2638 36.7409 12.7985 34.4926C11.5604 33.6893 10.3189 32.7523 9.09135 31.8257C8.66276 31.5022 8.23587 31.18 7.8114 30.8652C6.1329 29.6204 4.40357 28.4205 2.4552 27.4261L2.37165 27.3834ZM24.2834 10.2023C24.2485 10.4798 24.2751 10.7695 24.3727 11.0516L25.7311 14.9777C25.8284 15.2589 25.5456 15.5277 25.2664 15.4285C25.1255 15.3783 24.9835 15.3307 24.8408 15.2857C24.6858 15.2368 24.5298 15.191 24.373 15.1482C24.2624 15.1181 24.1729 15.0359 24.1353 14.9271L22.2301 9.4205C21.8243 8.24775 20.5497 7.62774 19.3832 8.03567C18.5227 8.33657 17.9614 9.11275 17.889 9.97001C17.8632 10.2749 17.8993 10.5901 18.0057 10.8977L19.2599 14.5225C19.2995 14.6371 19.2751 14.7566 19.2082 14.846C19.1591 14.9116 19.087 14.9611 19.0006 14.9807C18.6641 15.0568 18.3311 15.1507 18.0032 15.2629C17.9836 15.2696 17.9641 15.2764 17.9446 15.2832L15.7403 8.91278C15.3345 7.74003 14.0599 7.12002 12.8934 7.52795C12.0331 7.82879 11.4718 8.60469 11.3992 9.46173C11.3733 9.7668 11.4094 10.0822 11.5159 10.39L14.0163 17.6167C14.0581 17.7377 14.0291 17.8717 13.9435 17.9666C13.8696 18.0484 13.7971 18.1314 13.7258 18.2156C13.6084 18.3542 13.4945 18.4959 13.3844 18.6404C13.213 18.8651 12.8532 18.8169 12.7606 18.5495L7.53647 3.45034C7.13071 2.27759 5.85612 1.65758 4.6896 2.06551C3.52307 2.47343 2.90635 3.75482 3.31211 4.92757L9.71139 23.4231C9.81125 23.7117 9.51439 23.9778 9.24061 23.845L5.43216 21.9982C4.48727 21.54 3.3528 21.7994 2.69791 22.6233C1.87071 23.664 2.11321 25.1945 3.22111 25.9254C5.8454 27.2647 8.06002 28.9362 10.1492 30.5129C14.6634 33.9199 18.5918 36.8848 24.8017 35.1021C30.2455 33.1985 33.8824 27.1309 32.0565 21.8535C31.363 19.8492 30.6695 17.8449 29.976 15.8406C29.2817 13.8339 28.5873 11.8272 27.893 9.82052C27.5549 8.84323 26.4927 8.32655 25.5206 8.66649C24.8291 8.90831 24.3695 9.51844 24.2834 10.2023Z" fill="#121113"/>
</g>
<defs>
<clipPath id="clip0">
<rect width="33.7033" height="37.068" fill="white" transform="translate(0.520714 0.254578)"/>
</clipPath>
</defs>
</svg>
