<svg width="62" height="70" viewBox="0 0 62 70" fill="none" xmlns="http://www.w3.org/2000/svg">
<path d="M7.68496 4.24546C5.53967 4.99566 4.40549 7.35219 5.1517 9.50893L16.9203 43.523C17.1039 44.0538 16.558 44.5431 16.0545 44.299L9.05056 40.9026C7.31287 40.06 5.22652 40.5369 4.02217 42.0522C2.50089 43.9661 2.94686 46.7808 4.98434 48.1248C20.2389 55.9103 27.9666 69.797 44.6721 65.0013C54.6835 61.5004 61.3719 50.3418 58.0139 40.6365C55.4618 33.26 52.9093 25.8837 50.3571 18.5073C49.7353 16.71 47.7819 15.7598 45.9942 16.385C44.2064 17.0101 43.2613 18.9739 43.8831 20.7712L46.3813 27.9915C46.5602 28.5086 46.0401 29.0031 45.5267 28.8205C44.9857 28.6282 44.4374 28.4561 43.8837 28.3052C43.6803 28.2497 43.5157 28.0985 43.4465 27.8985L39.9427 17.7716C39.1965 15.6149 36.8525 14.4747 34.7072 15.2249C32.5619 15.9751 31.4277 18.3316 32.1739 20.4883L34.4803 27.1545C34.6068 27.52 34.3791 27.9121 34.0035 27.997C33.3477 28.1454 32.6994 28.3304 32.0615 28.5534L28.0077 16.8379C27.2614 14.6812 24.9174 13.5409 22.7721 14.2911C20.6268 15.0413 19.4927 17.3979 20.2389 19.5546L24.8371 32.8448C24.9141 33.0673 24.8608 33.3138 24.7033 33.4883C24.3436 33.8868 24.0006 34.3004 23.675 34.7274C23.3599 35.1406 22.6981 35.052 22.528 34.5603L12.9205 6.79224C12.1743 4.6355 9.83025 3.49527 7.68496 4.24546Z" fill="white"/>
<path fill-rule="evenodd" clip-rule="evenodd" d="M3.42215 50.8063L3.27816 50.7113C-0.28255 48.3624 -1.05332 43.458 1.59653 40.1242C3.70055 37.4771 7.35528 36.6369 10.4025 38.1146L12.046 38.9116L2.2235 10.5221C0.923028 6.76337 2.89386 2.63837 6.66216 1.32062C10.4381 0.000191636 14.5456 2.01298 15.8487 5.77911L18.5543 13.5989C19.3656 12.6079 20.4507 11.8204 21.7493 11.3663C25.1068 10.1922 28.7264 11.6535 30.4035 14.6394C31.2235 13.5982 32.3395 12.7703 33.6844 12.3C36.9524 11.1572 40.4687 12.5111 42.2004 15.3376C42.9201 14.5081 43.8591 13.8491 44.9714 13.4601C48.3898 12.2647 52.1066 14.0875 53.2853 17.4942L60.9421 39.6234C64.9742 51.277 56.9615 63.9863 45.6949 67.9261L45.6117 67.9552L45.5271 67.9795C36.0142 70.7104 28.9705 68.0151 22.5976 63.8804C20.3207 62.4031 18.0376 60.6798 15.78 58.9758C14.9918 58.3809 14.2067 57.7884 13.4261 57.2094C10.3393 54.9202 7.15893 52.7134 3.5758 50.8847L3.42215 50.8063ZM43.7189 19.2094C43.6547 19.7197 43.7036 20.2524 43.8831 20.7712L46.3813 27.9915C46.5602 28.5086 46.0401 29.0031 45.5267 28.8205C45.2674 28.7283 45.0065 28.6408 44.744 28.558C44.4589 28.4681 44.172 28.3837 43.8837 28.3052C43.6803 28.2498 43.5157 28.0985 43.4465 27.8985L39.9427 17.7716C39.1965 15.6149 36.8525 14.4747 34.7072 15.2249C33.1247 15.7782 32.0924 17.2057 31.9592 18.7822C31.9118 19.3429 31.9781 19.9225 32.1739 20.4883L34.4803 27.1545C34.5533 27.3653 34.5084 27.5849 34.3853 27.7494C34.295 27.8701 34.1625 27.9611 34.0035 27.997C33.3846 28.137 32.7724 28.3097 32.1693 28.5162C32.1333 28.5285 32.0974 28.5409 32.0615 28.5535L28.0077 16.8379C27.2614 14.6812 24.9174 13.5409 22.7721 14.2911C21.19 14.8444 20.1578 16.2713 20.0242 17.8474C19.9767 18.4085 20.043 18.9884 20.2389 19.5546L24.8371 32.8448C24.9141 33.0673 24.8608 33.3138 24.7033 33.4883C24.5675 33.6388 24.434 33.7914 24.303 33.9461C24.087 34.2011 23.8777 34.4616 23.675 34.7274C23.3599 35.1406 22.6981 35.0521 22.528 34.5603L12.9205 6.79224C12.1743 4.6355 9.83025 3.49526 7.68496 4.24546C5.53967 4.99565 4.40549 7.35219 5.1517 9.50893L16.9203 43.5231C17.1039 44.0538 16.558 44.5431 16.0545 44.299L9.05056 40.9026C7.31287 40.06 5.22652 40.5369 4.02217 42.0522C2.50089 43.9661 2.94686 46.7808 4.98434 48.1248C9.81053 50.588 13.8833 53.6618 17.7254 56.5615C26.0272 62.8272 33.2518 68.2798 44.6721 65.0013C54.6835 61.5004 61.3719 50.3418 58.0139 40.6365C56.7386 36.9505 55.4632 33.2645 54.1878 29.5786C52.9109 25.8881 51.634 22.1977 50.3571 18.5073C49.7353 16.71 47.7819 15.7598 45.9942 16.385C44.7225 16.8297 43.8771 17.9517 43.7189 19.2094Z" fill="#121113"/>
</svg>
