<svg width="96" height="49" viewBox="0 0 96 49" fill="none" xmlns="http://www.w3.org/2000/svg">
<path d="M9.60449 29.3585L4.4873 24.313L9.58496 19.2674C30.6787 -1.531 64.9951 -1.531 86.0889 19.2674L91.2061 24.313L86.1084 29.3585C65.0146 50.157 30.6982 50.157 9.60449 29.3585Z" fill="white"/>
<path d="M4.48731 24.313L9.60449 29.3585C30.6982 50.157 65.0147 50.157 86.1084 29.3585L91.2061 24.313L86.0889 19.2674C64.9951 -1.531 30.6787 -1.531 9.58496 19.2674L4.48731 24.313ZM47.8467 48.6164C33.042 48.6164 18.2373 43.0508 6.96777 31.9391L0.541992 25.6033C-0.180664 24.8907 -0.180664 23.7353 0.541992 23.0035L6.96777 16.6676C29.5068 -5.55588 66.1865 -5.55588 88.7256 16.6676L95.1514 23.0035C95.874 23.716 95.874 24.8715 95.1514 25.6033L88.7256 31.9391C77.4561 43.0508 62.6514 48.6164 47.8467 48.6164Z" fill="#231F20"/>
<path d="M47.8467 10.3511C40.0342 10.3511 33.6865 16.6099 33.6865 24.313C33.6865 32.0161 40.0342 38.2749 47.8467 38.2749C55.6592 38.2749 62.0068 32.0161 62.0068 24.313C62.0068 16.6099 55.6592 10.3511 47.8467 10.3511ZM47.8467 41.9339C37.9834 41.9339 29.9756 34.0189 29.9756 24.313C29.9756 14.5878 38.0029 6.69209 47.8467 6.69209C57.6904 6.69209 65.7178 14.607 65.7178 24.313C65.7178 34.0382 57.71 41.9339 47.8467 41.9339Z" fill="#231F20"/>
</svg>
