<svg width="136" height="66" viewBox="0 0 136 66" fill="none" xmlns="http://www.w3.org/2000/svg">
<path d="M48.8029 33.3257C48.9894 43.6324 57.737 51.8418 68.3413 51.6619C78.9456 51.482 87.3909 42.9809 87.2045 32.6743C87.0181 22.3676 78.2704 14.1582 67.6661 14.3381C57.0618 14.5181 48.6165 23.0191 48.8029 33.3257Z" fill="white"/>
<path fill-rule="evenodd" clip-rule="evenodd" d="M68.5464 62.991C33.2003 63.5906 4.00405 34.0858 4.00405 34.0858C4.00405 34.0858 32.1152 3.60867 67.4614 3.00902C102.808 2.40937 132.004 31.9142 132.004 31.9142C132.004 31.9142 103.893 62.3913 68.5464 62.991Z" fill="white"/>
<path fill-rule="evenodd" clip-rule="evenodd" d="M133.779 30.1545C133.78 30.1553 133.781 30.1559 132.004 31.9142C133.842 33.6094 133.841 33.61 133.84 33.6108L133.838 33.613L133.832 33.6194L133.813 33.6404L133.743 33.7148C133.683 33.7786 133.596 33.8705 133.483 33.9885C133.256 34.2245 132.924 34.5653 132.491 34.9962C131.627 35.8577 130.359 37.0802 128.731 38.5447C125.476 41.4716 120.765 45.3766 114.925 49.3026C103.285 57.127 86.9444 65.1792 68.5892 65.4906C50.2343 65.802 33.6132 58.3092 21.6985 50.885C15.7201 47.1598 10.8711 43.4171 7.5126 40.6025C5.83219 39.1943 4.52177 38.0157 3.6264 37.1841C3.17863 36.7682 2.83441 36.4389 2.59938 36.2107C2.48186 36.0966 2.39161 36.0078 2.32934 35.9461L2.25699 35.8741L2.23672 35.8538L2.23058 35.8476L2.22852 35.8455C2.22776 35.8447 2.22712 35.8441 4.00405 34.0858C2.16629 32.3906 2.16691 32.39 2.16763 32.3892L2.17554 32.3806L2.19508 32.3596L2.2648 32.2852C2.32482 32.2214 2.41182 32.1295 2.52516 32.0115C2.75183 31.7755 3.08397 31.4347 3.51646 31.0038C4.38128 30.1423 5.64837 28.9198 7.27691 27.4553C10.5317 24.5284 15.2427 20.6234 21.083 16.6974C32.7227 8.87303 49.0634 0.820778 67.4187 0.509378C85.7735 0.197985 102.395 7.69076 114.309 15.115C120.288 18.8402 125.137 22.5829 128.495 25.3975C130.176 26.8057 131.486 27.9843 132.381 28.8159C132.829 29.2318 133.173 29.5611 133.408 29.7893C133.526 29.9034 133.616 29.9922 133.678 30.0539L133.751 30.1259L133.771 30.1462L133.777 30.1524L133.779 30.1545ZM4.00405 34.0858L2.16629 32.3906L0.546999 34.1462L2.22712 35.8441L4.00405 34.0858ZM7.57534 34.0235C8.37641 34.7537 9.43365 35.6892 10.7239 36.7705C13.9443 39.4694 18.6034 43.0655 24.3424 46.6415C35.8623 53.8198 51.5124 60.7796 68.5037 60.4913C85.4946 60.2031 100.883 52.717 112.135 45.1529C117.741 41.3846 122.267 37.6329 125.387 34.8266C126.637 33.7032 127.659 32.7331 128.432 31.9765C127.631 31.2463 126.574 30.3108 125.284 29.2295C122.064 26.5306 117.404 22.9345 111.665 19.3585C100.146 12.1802 84.4954 5.2204 67.5041 5.50866C50.5132 5.79691 35.1253 13.283 23.8728 20.8471C18.267 24.6154 13.7411 28.3671 10.6205 31.1734C9.37125 32.2968 8.34922 33.2669 7.57534 34.0235ZM132.004 31.9142L133.842 33.6094L135.461 31.8538L133.781 30.1559L132.004 31.9142ZM84.7049 32.7192C84.5446 23.8585 77.001 16.6801 67.7089 16.8378C58.4184 16.9954 51.1423 24.4223 51.3025 33.2809C51.4628 42.1415 59.0064 49.3199 68.2986 49.1622C77.589 49.0046 84.8651 41.5777 84.7049 32.7192ZM67.6234 11.8385C79.5398 11.6363 89.4915 20.8767 89.7041 32.6294C89.9167 44.3842 80.3022 53.9593 68.384 54.1615C56.4676 54.3637 46.5159 45.1233 46.3033 33.3706C46.0907 21.6159 55.7052 12.0407 67.6234 11.8385Z" fill="#121113"/>
</svg>
