<svg width="53" height="28" viewBox="0 0 53 28" fill="none" xmlns="http://www.w3.org/2000/svg">
<g clip-path="url(#clip0)">
<path d="M5.67181 16.7024L2.88928 13.9588L5.66119 11.2152C17.1311 -0.0941417 35.791 -0.0941417 47.261 11.2152L50.0435 13.9588L47.2716 16.7024C35.8017 28.0117 17.1418 28.0117 5.67181 16.7024Z" fill="white"/>
<path d="M2.88928 13.9588L5.6718 16.7024C17.1418 28.0117 35.8017 28.0117 47.2716 16.7024L50.0435 13.9588L47.261 11.2152C35.791 -0.0941378 17.1311 -0.0941378 5.66118 11.2152L2.88928 13.9588ZM26.4664 27.174C18.4162 27.174 10.366 24.1477 4.23806 18.1056L0.743975 14.6604C0.351023 14.2729 0.351023 13.6446 0.743975 13.2467L4.23806 9.80156C16.4939 -2.28271 36.4389 -2.28271 48.6947 9.80156L52.1888 13.2467C52.5818 13.6342 52.5818 14.2625 52.1888 14.6604L48.6947 18.1056C42.5668 24.1477 34.5166 27.174 26.4664 27.174Z" fill="#231F20"/>
<path d="M26.4664 6.36687C22.2183 6.36687 18.7667 9.77015 18.7667 13.9588C18.7667 18.1475 22.2183 21.5507 26.4664 21.5507C30.7145 21.5507 34.1661 18.1475 34.1661 13.9588C34.1661 9.77015 30.7145 6.36687 26.4664 6.36687ZM26.4664 23.5404C21.1031 23.5404 16.7488 19.2365 16.7488 13.9588C16.7488 8.67063 21.1138 4.37726 26.4664 4.37726C31.819 4.37726 36.184 8.6811 36.184 13.9588C36.184 19.247 31.8297 23.5404 26.4664 23.5404Z" fill="#231F20"/>
</g>
<defs>
<clipPath id="clip0">
<rect width="52.0343" height="26.4356" fill="white" transform="translate(0.449261 0.738358)"/>
</clipPath>
</defs>
</svg>
